<svg width="470" height="470" viewBox="0 0 470 470" fill="none" xmlns="http://www.w3.org/2000/svg">
<path fill-rule="evenodd" clip-rule="evenodd" d="M350 235C350 298.513 298.513 350 235 350C171.487 350 120 298.513 120 235C120 171.487 171.487 120 235 120C298.513 120 350 171.487 350 235ZM338 235C338 291.885 291.885 338 235 338C178.115 338 132 291.885 132 235C132 178.115 178.115 132 235 132C291.885 132 338 178.115 338 235Z" fill="#FFC233"/>
<path fill-rule="evenodd" clip-rule="evenodd" d="M235 380C315.081 380 380 315.081 380 235C380 154.919 315.081 90 235 90C154.919 90 90 154.919 90 235C90 315.081 154.919 380 235 380ZM235 368C308.454 368 368 308.454 368 235C368 161.546 308.454 102 235 102C161.546 102 102 161.546 102 235C102 308.454 161.546 368 235 368Z" fill="#FFC233"/>
<path fill-rule="evenodd" clip-rule="evenodd" d="M410 235C410 331.65 331.65 410 235 410C138.35 410 60 331.65 60 235C60 138.35 138.35 60 235 60C331.65 60 410 138.35 410 235ZM398 235C398 325.022 325.022 398 235 398C144.978 398 72 325.022 72 235C72 144.978 144.978 72 235 72C325.022 72 398 144.978 398 235Z" fill="#FFC233"/>
<path fill-rule="evenodd" clip-rule="evenodd" d="M235 440C348.218 440 440 348.218 440 235C440 121.782 348.218 30 235 30C121.782 30 30 121.782 30 235C30 348.218 121.782 440 235 440ZM235 428C341.591 428 428 341.591 428 235C428 128.409 341.591 42 235 42C128.409 42 42 128.409 42 235C42 341.591 128.409 428 235 428Z" fill="#FFC233"/>
<path fill-rule="evenodd" clip-rule="evenodd" d="M235 470C364.787 470 470 364.787 470 235C470 105.213 364.787 0 235 0C105.213 0 0 105.213 0 235C0 364.787 105.213 470 235 470ZM235 458C358.159 458 458 358.159 458 235C458 111.84 358.159 12 235 12C111.84 12 12 111.84 12 235C12 358.159 111.84 458 235 458Z" fill="#FFC233"/>
</svg>
