<svg width="375" height="375" viewBox="0 0 375 375" fill="none" xmlns="http://www.w3.org/2000/svg">
<path fill-rule="evenodd" clip-rule="evenodd" d="M363 187.5C363 284.426 284.426 363 187.5 363C90.574 363 12 284.426 12 187.5C12 90.574 90.574 12 187.5 12C284.426 12 363 90.574 363 187.5ZM375 187.5C375 291.053 291.053 375 187.5 375C83.9466 375 0 291.053 0 187.5C0 83.9466 83.9466 0 187.5 0C291.053 0 375 83.9466 375 187.5ZM187.5 334.272C268.56 334.272 334.272 268.56 334.272 187.5C334.272 106.44 268.56 40.7278 187.5 40.7278C106.439 40.7278 40.7273 106.44 40.7273 187.5C40.7273 268.56 106.439 334.272 187.5 334.272ZM187.5 346.272C275.187 346.272 346.272 275.188 346.272 187.5C346.272 99.8125 275.187 28.7278 187.5 28.7278C99.812 28.7278 28.7273 99.8125 28.7273 187.5C28.7273 275.188 99.812 346.272 187.5 346.272ZM305.544 187.5C305.544 252.694 252.694 305.544 187.5 305.544C122.306 305.544 69.4555 252.694 69.4555 187.5C69.4555 122.306 122.306 69.4555 187.5 69.4555C252.694 69.4555 305.544 122.306 305.544 187.5ZM317.544 187.5C317.544 259.322 259.322 317.544 187.5 317.544C115.678 317.544 57.4555 259.322 57.4555 187.5C57.4555 115.678 115.678 57.4555 187.5 57.4555C259.322 57.4555 317.544 115.678 317.544 187.5ZM276.816 187.5C276.816 236.828 236.828 276.817 187.5 276.817C138.171 276.817 98.1828 236.828 98.1828 187.5C98.1828 138.172 138.171 98.1834 187.5 98.1834C236.828 98.1834 276.816 138.172 276.816 187.5ZM288.816 187.5C288.816 243.456 243.455 288.817 187.5 288.817C131.544 288.817 86.1828 243.456 86.1828 187.5C86.1828 131.544 131.544 86.1834 187.5 86.1834C243.455 86.1834 288.816 131.544 288.816 187.5ZM187.5 248.089C220.962 248.089 248.089 220.962 248.089 187.5C248.089 154.038 220.962 126.911 187.5 126.911C154.038 126.911 126.911 154.038 126.911 187.5C126.911 220.962 154.038 248.089 187.5 248.089ZM187.5 260.089C227.59 260.089 260.089 227.59 260.089 187.5C260.089 147.41 227.59 114.911 187.5 114.911C147.41 114.911 114.911 147.41 114.911 187.5C114.911 227.59 147.41 260.089 187.5 260.089ZM219.361 187.5C219.361 205.096 205.096 219.361 187.5 219.361C169.903 219.361 155.638 205.096 155.638 187.5C155.638 169.904 169.903 155.639 187.5 155.639C205.096 155.639 219.361 169.904 219.361 187.5ZM231.361 187.5C231.361 211.724 211.723 231.361 187.5 231.361C163.276 231.361 143.638 211.724 143.638 187.5C143.638 163.276 163.276 143.639 187.5 143.639C211.723 143.639 231.361 163.276 231.361 187.5Z" fill="url(#paint0_linear_117_244)"/>
<defs>
<linearGradient id="paint0_linear_117_244" x1="187.5" y1="0" x2="187.5" y2="375" gradientUnits="userSpaceOnUse">
<stop stop-color="#02B5EA"/>
<stop offset="1" stop-color="#02B5EA" stop-opacity="0.15"/>
</linearGradient>
</defs>
</svg>
