<svg width="370" height="330" viewBox="0 0 370 330" fill="none" xmlns="http://www.w3.org/2000/svg">
<path d="M237.154 330H268.753C328.838 299.441 370 237.027 370 165C370 92.9727 328.838 30.5593 268.753 0H237.154C307.211 22.1231 358 87.6303 358 165C358 242.37 307.211 307.877 237.154 330Z" fill="#E5F2C0"/>
<path d="M101.247 330H132.846C62.7892 307.877 12 242.37 12 165C12 87.6303 62.7892 22.1231 132.846 0H101.247C41.1622 30.5593 0 92.9727 0 165C0 237.027 41.1622 299.441 101.247 330Z" fill="#E5F2C0"/>
<path fill-rule="evenodd" clip-rule="evenodd" d="M185 225C218.137 225 245 198.137 245 165C245 131.863 218.137 105 185 105C151.863 105 125 131.863 125 165C125 198.137 151.863 225 185 225ZM185 213C211.51 213 233 191.51 233 165C233 138.49 211.51 117 185 117C158.49 117 137 138.49 137 165C137 191.51 158.49 213 185 213Z" fill="#E5F2C0"/>
<path fill-rule="evenodd" clip-rule="evenodd" d="M275 165C275 214.706 234.706 255 185 255C135.294 255 95 214.706 95 165C95 115.294 135.294 75 185 75C234.706 75 275 115.294 275 165ZM263 165C263 208.078 228.078 243 185 243C141.922 243 107 208.078 107 165C107 121.922 141.922 87 185 87C228.078 87 263 121.922 263 165Z" fill="#E5F2C0"/>
<path fill-rule="evenodd" clip-rule="evenodd" d="M185 285C251.274 285 305 231.274 305 165C305 98.7258 251.274 45 185 45C118.726 45 65 98.7258 65 165C65 231.274 118.726 285 185 285ZM185 273C244.647 273 293 224.647 293 165C293 105.353 244.647 57 185 57C125.353 57 77 105.353 77 165C77 224.647 125.353 273 185 273Z" fill="#E5F2C0"/>
<path fill-rule="evenodd" clip-rule="evenodd" d="M340 165C340 250.604 270.604 320 185 320C99.3959 320 30 250.604 30 165C30 79.3959 99.3959 10 185 10C270.604 10 340 79.3959 340 165ZM328 165C328 243.977 263.977 308 185 308C106.023 308 42 243.977 42 165C42 86.0233 106.023 22 185 22C263.977 22 328 86.0233 328 165Z" fill="#E5F2C0"/>
</svg>
