<svg width="1440" height="670" viewBox="0 0 1440 670" fill="none" xmlns="http://www.w3.org/2000/svg">
<rect width="1440" height="662" fill="url(#paint0_linear_1_493)"/>
<mask id="mask0_1_493" style="mask-type:alpha" maskUnits="userSpaceOnUse" x="0" y="0" width="1440" height="662">
<rect width="1440" height="662" fill="url(#paint1_linear_1_493)"/>
</mask>
<g mask="url(#mask0_1_493)">
<path fill-rule="evenodd" clip-rule="evenodd" d="M1457 337C1457 532.509 1298.51 691 1103 691C907.491 691 749 532.509 749 337C749 141.491 907.491 -17 1103 -17C1298.51 -17 1457 141.491 1457 337ZM1492 337C1492 551.839 1317.84 726 1103 726C888.161 726 714 551.839 714 337C714 122.161 888.161 -52 1103 -52C1317.84 -52 1492 122.161 1492 337ZM1103 631.399C1265.59 631.399 1397.4 499.592 1397.4 337C1397.4 174.408 1265.59 42.6006 1103 42.6006C940.407 42.6006 808.6 174.408 808.6 337C808.6 499.592 940.407 631.399 1103 631.399ZM1103 666.399C1284.92 666.399 1432.4 518.922 1432.4 337C1432.4 155.078 1284.92 7.60059 1103 7.60059C921.077 7.60059 773.6 155.078 773.6 337C773.6 518.922 921.077 666.399 1103 666.399ZM1337.8 337C1337.8 466.676 1232.68 571.799 1103 571.799C973.324 571.799 868.201 466.676 868.201 337C868.201 207.324 973.324 102.201 1103 102.201C1232.68 102.201 1337.8 207.324 1337.8 337ZM1372.8 337C1372.8 486.006 1252.01 606.799 1103 606.799C953.994 606.799 833.201 486.006 833.201 337C833.201 187.994 953.994 67.2011 1103 67.2011C1252.01 67.2011 1372.8 187.994 1372.8 337ZM1278.2 337C1278.2 433.759 1199.76 512.198 1103 512.198C1006.24 512.198 927.801 433.759 927.801 337C927.801 240.241 1006.24 161.802 1103 161.802C1199.76 161.802 1278.2 240.241 1278.2 337ZM1313.2 337C1313.2 453.089 1219.09 547.198 1103 547.198C986.91 547.198 892.801 453.089 892.801 337C892.801 220.911 986.91 126.802 1103 126.802C1219.09 126.802 1313.2 220.911 1313.2 337ZM1103 452.598C1166.84 452.598 1218.6 400.843 1218.6 337C1218.6 273.157 1166.84 221.402 1103 221.402C1039.16 221.402 987.402 273.157 987.402 337C987.402 400.843 1039.16 452.598 1103 452.598ZM1103 487.598C1186.17 487.598 1253.6 420.173 1253.6 337C1253.6 253.827 1186.17 186.402 1103 186.402C1019.83 186.402 952.402 253.827 952.402 337C952.402 420.173 1019.83 487.598 1103 487.598ZM1159 337C1159 367.926 1133.93 392.997 1103 392.997C1072.07 392.997 1047 367.926 1047 337C1047 306.074 1072.07 281.003 1103 281.003C1133.93 281.003 1159 306.074 1159 337ZM1194 337C1194 387.256 1153.26 427.997 1103 427.997C1052.74 427.997 1012 387.256 1012 337C1012 286.744 1052.74 246.003 1103 246.003C1153.26 246.003 1194 286.744 1194 337Z" fill="url(#paint2_linear_1_493)"/>
</g>
<defs>
<linearGradient id="paint0_linear_1_493" x1="720" y1="0" x2="720" y2="662" gradientUnits="userSpaceOnUse">
<stop stop-color="#02B5EA"/>
<stop offset="1" stop-color="#02B5EA" stop-opacity="0.15"/>
</linearGradient>
<linearGradient id="paint1_linear_1_493" x1="720" y1="0" x2="720" y2="662" gradientUnits="userSpaceOnUse">
<stop stop-color="#02B5EA"/>
<stop offset="1" stop-color="#02B5EA" stop-opacity="0.15"/>
</linearGradient>
<linearGradient id="paint2_linear_1_493" x1="1103" y1="-52" x2="1103" y2="726" gradientUnits="userSpaceOnUse">
<stop stop-color="#02B5EA"/>
<stop offset="1" stop-color="#02B5EA" stop-opacity="0.15"/>
</linearGradient>
</defs>
</svg>
